<mxfile host="app.diagrams.net" agent="Mozilla/5.0 (Windows NT 10.0; Win64; x64) AppleWebKit/537.36 (KHTML, like Gecko) Chrome/130.0.0.0 Safari/537.36" version="24.8.3">
  <diagram name="Trang-1" id="_7vikbtOZwb3V9sRnV5X">
    <mxGraphModel dx="1500" dy="796" grid="1" gridSize="10" guides="1" tooltips="1" connect="1" arrows="1" fold="1" page="1" pageScale="1" pageWidth="827" pageHeight="1169" math="0" shadow="0">
      <root>
        <mxCell id="0" />
        <mxCell id="1" parent="0" />
        <mxCell id="YmB1JS9k2Q7_JQNzzzLY-47" style="edgeStyle=orthogonalEdgeStyle;rounded=0;orthogonalLoop=1;jettySize=auto;html=1;entryX=0.5;entryY=0;entryDx=0;entryDy=0;dashed=1;endArrow=none;endFill=0;" parent="1" source="YmB1JS9k2Q7_JQNzzzLY-1" target="YmB1JS9k2Q7_JQNzzzLY-42" edge="1">
          <mxGeometry relative="1" as="geometry" />
        </mxCell>
        <mxCell id="YmB1JS9k2Q7_JQNzzzLY-1" value="" style="rounded=0;whiteSpace=wrap;html=1;" parent="1" vertex="1">
          <mxGeometry x="40" y="40" width="600" height="280" as="geometry" />
        </mxCell>
        <mxCell id="YmB1JS9k2Q7_JQNzzzLY-13" value="&lt;b&gt;&lt;font style=&quot;font-size: 13px;&quot;&gt;Presentation Layer&lt;/font&gt;&lt;/b&gt;" style="text;html=1;align=left;verticalAlign=middle;whiteSpace=wrap;rounded=0;" parent="1" vertex="1">
          <mxGeometry x="40" y="40" width="600" height="40" as="geometry" />
        </mxCell>
        <mxCell id="YmB1JS9k2Q7_JQNzzzLY-15" value="" style="rounded=0;whiteSpace=wrap;html=1;" parent="1" vertex="1">
          <mxGeometry x="80" y="80" width="520" height="200" as="geometry" />
        </mxCell>
        <mxCell id="YmB1JS9k2Q7_JQNzzzLY-16" value="&lt;b&gt;&lt;font style=&quot;font-size: 13px;&quot;&gt;User Interface&lt;/font&gt;&lt;/b&gt;" style="text;html=1;align=left;verticalAlign=middle;whiteSpace=wrap;rounded=0;" parent="1" vertex="1">
          <mxGeometry x="80" y="80" width="520" height="40" as="geometry" />
        </mxCell>
        <mxCell id="YmB1JS9k2Q7_JQNzzzLY-17" value="Home Page" style="rounded=0;whiteSpace=wrap;html=1;" parent="1" vertex="1">
          <mxGeometry x="280" y="120" width="120" height="40" as="geometry" />
        </mxCell>
        <mxCell id="YmB1JS9k2Q7_JQNzzzLY-18" value="Print Document Step 1 Page" style="rounded=0;whiteSpace=wrap;html=1;" parent="1" vertex="1">
          <mxGeometry x="440" y="120" width="120" height="40" as="geometry" />
        </mxCell>
        <mxCell id="YmB1JS9k2Q7_JQNzzzLY-19" value="Print Document Step 2 Page" style="rounded=0;whiteSpace=wrap;html=1;" parent="1" vertex="1">
          <mxGeometry x="280" y="200" width="120" height="40" as="geometry" />
        </mxCell>
        <mxCell id="YmB1JS9k2Q7_JQNzzzLY-20" value="Printing History Page" style="rounded=0;whiteSpace=wrap;html=1;" parent="1" vertex="1">
          <mxGeometry x="440" y="200" width="120" height="40" as="geometry" />
        </mxCell>
        <mxCell id="YmB1JS9k2Q7_JQNzzzLY-21" value="Login Page" style="rounded=0;whiteSpace=wrap;html=1;" parent="1" vertex="1">
          <mxGeometry x="120" y="120" width="120" height="40" as="geometry" />
        </mxCell>
        <mxCell id="YmB1JS9k2Q7_JQNzzzLY-22" value="Map Location Page" style="rounded=0;whiteSpace=wrap;html=1;" parent="1" vertex="1">
          <mxGeometry x="120" y="200" width="120" height="40" as="geometry" />
        </mxCell>
        <mxCell id="YmB1JS9k2Q7_JQNzzzLY-24" value="" style="rounded=0;whiteSpace=wrap;html=1;" parent="1" vertex="1">
          <mxGeometry x="40" y="400" width="1160" height="360" as="geometry" />
        </mxCell>
        <mxCell id="YmB1JS9k2Q7_JQNzzzLY-25" value="&lt;b&gt;&lt;font style=&quot;font-size: 13px;&quot;&gt;Business Layer&lt;/font&gt;&lt;/b&gt;" style="text;html=1;align=left;verticalAlign=middle;whiteSpace=wrap;rounded=0;" parent="1" vertex="1">
          <mxGeometry x="40" y="400" width="600" height="40" as="geometry" />
        </mxCell>
        <mxCell id="YmB1JS9k2Q7_JQNzzzLY-26" value="" style="rounded=0;whiteSpace=wrap;html=1;" parent="1" vertex="1">
          <mxGeometry x="80" y="440" width="520" height="200" as="geometry" />
        </mxCell>
        <mxCell id="YmB1JS9k2Q7_JQNzzzLY-27" value="&lt;b&gt;&lt;font style=&quot;font-size: 13px;&quot;&gt;Print Document&lt;/font&gt;&lt;/b&gt;" style="text;html=1;align=left;verticalAlign=middle;whiteSpace=wrap;rounded=0;" parent="1" vertex="1">
          <mxGeometry x="80" y="440" width="520" height="40" as="geometry" />
        </mxCell>
        <mxCell id="YmB1JS9k2Q7_JQNzzzLY-28" value="View recent uploads" style="rounded=0;whiteSpace=wrap;html=1;" parent="1" vertex="1">
          <mxGeometry x="280" y="480" width="120" height="40" as="geometry" />
        </mxCell>
        <mxCell id="YmB1JS9k2Q7_JQNzzzLY-29" value="Printing configuration" style="rounded=0;whiteSpace=wrap;html=1;" parent="1" vertex="1">
          <mxGeometry x="440" y="480" width="120" height="40" as="geometry" />
        </mxCell>
        <mxCell id="YmB1JS9k2Q7_JQNzzzLY-32" value="Upload Document" style="rounded=0;whiteSpace=wrap;html=1;" parent="1" vertex="1">
          <mxGeometry x="120" y="480" width="120" height="40" as="geometry" />
        </mxCell>
        <mxCell id="YmB1JS9k2Q7_JQNzzzLY-33" value="Choose printer location" style="rounded=0;whiteSpace=wrap;html=1;" parent="1" vertex="1">
          <mxGeometry x="120" y="560" width="120" height="40" as="geometry" />
        </mxCell>
        <mxCell id="YmB1JS9k2Q7_JQNzzzLY-34" value="" style="rounded=0;whiteSpace=wrap;html=1;" parent="1" vertex="1">
          <mxGeometry x="640" y="440" width="520" height="120" as="geometry" />
        </mxCell>
        <mxCell id="YmB1JS9k2Q7_JQNzzzLY-35" value="&lt;b&gt;&lt;font style=&quot;font-size: 13px;&quot;&gt;View Printing History&lt;/font&gt;&lt;/b&gt;" style="text;html=1;align=left;verticalAlign=middle;whiteSpace=wrap;rounded=0;" parent="1" vertex="1">
          <mxGeometry x="640" y="440" width="520" height="40" as="geometry" />
        </mxCell>
        <mxCell id="YmB1JS9k2Q7_JQNzzzLY-42" value="&amp;lt;&amp;lt;access&amp;gt;&amp;gt;" style="text;html=1;align=center;verticalAlign=middle;whiteSpace=wrap;rounded=0;" parent="1" vertex="1">
          <mxGeometry x="310" y="340" width="60" height="30" as="geometry" />
        </mxCell>
        <mxCell id="YmB1JS9k2Q7_JQNzzzLY-43" value="Sort recent print based on certain criteria" style="rounded=0;whiteSpace=wrap;html=1;" parent="1" vertex="1">
          <mxGeometry x="680" y="480" width="120" height="40" as="geometry" />
        </mxCell>
        <mxCell id="YmB1JS9k2Q7_JQNzzzLY-44" value="View print history" style="rounded=0;whiteSpace=wrap;html=1;" parent="1" vertex="1">
          <mxGeometry x="840" y="480" width="120" height="40" as="geometry" />
        </mxCell>
        <mxCell id="YmB1JS9k2Q7_JQNzzzLY-46" value="View printing statistics" style="rounded=0;whiteSpace=wrap;html=1;" parent="1" vertex="1">
          <mxGeometry x="1000.5" y="480" width="120" height="40" as="geometry" />
        </mxCell>
        <mxCell id="YmB1JS9k2Q7_JQNzzzLY-50" style="edgeStyle=orthogonalEdgeStyle;rounded=0;orthogonalLoop=1;jettySize=auto;html=1;entryX=0.5;entryY=0;entryDx=0;entryDy=0;dashed=1;" parent="1" source="YmB1JS9k2Q7_JQNzzzLY-42" target="YmB1JS9k2Q7_JQNzzzLY-25" edge="1">
          <mxGeometry relative="1" as="geometry" />
        </mxCell>
        <mxCell id="YmB1JS9k2Q7_JQNzzzLY-51" value="" style="rounded=0;whiteSpace=wrap;html=1;" parent="1" vertex="1">
          <mxGeometry x="640" y="600" width="520" height="120" as="geometry" />
        </mxCell>
        <mxCell id="YmB1JS9k2Q7_JQNzzzLY-52" value="&lt;b&gt;&lt;font style=&quot;font-size: 13px;&quot;&gt;Manage transaction&lt;/font&gt;&lt;/b&gt;" style="text;html=1;align=left;verticalAlign=middle;whiteSpace=wrap;rounded=0;" parent="1" vertex="1">
          <mxGeometry x="640" y="600" width="520" height="40" as="geometry" />
        </mxCell>
        <mxCell id="YmB1JS9k2Q7_JQNzzzLY-53" value="View purchase history" style="rounded=0;whiteSpace=wrap;html=1;" parent="1" vertex="1">
          <mxGeometry x="680" y="640" width="120" height="40" as="geometry" />
        </mxCell>
        <mxCell id="YmB1JS9k2Q7_JQNzzzLY-54" value="Make purchases" style="rounded=0;whiteSpace=wrap;html=1;" parent="1" vertex="1">
          <mxGeometry x="840" y="640" width="120" height="40" as="geometry" />
        </mxCell>
        <mxCell id="qaFggrNNi9mdGuN-Iv2Q-1" value="" style="rounded=0;whiteSpace=wrap;html=1;" parent="1" vertex="1">
          <mxGeometry x="40" y="840" width="840" height="120" as="geometry" />
        </mxCell>
        <mxCell id="qaFggrNNi9mdGuN-Iv2Q-2" value="&lt;b&gt;&lt;font style=&quot;font-size: 13px;&quot;&gt;Persistence Layer&lt;/font&gt;&lt;/b&gt;" style="text;html=1;align=left;verticalAlign=middle;whiteSpace=wrap;rounded=0;" parent="1" vertex="1">
          <mxGeometry x="40" y="840" width="520" height="40" as="geometry" />
        </mxCell>
        <mxCell id="qaFggrNNi9mdGuN-Iv2Q-3" value="" style="rounded=0;whiteSpace=wrap;html=1;" parent="1" vertex="1">
          <mxGeometry x="40" y="1040" width="680" height="120" as="geometry" />
        </mxCell>
        <mxCell id="qaFggrNNi9mdGuN-Iv2Q-4" value="&lt;b&gt;&lt;font style=&quot;font-size: 13px;&quot;&gt;Database Layer&lt;/font&gt;&lt;/b&gt;" style="text;html=1;align=left;verticalAlign=middle;whiteSpace=wrap;rounded=0;" parent="1" vertex="1">
          <mxGeometry x="40" y="1040" width="600" height="40" as="geometry" />
        </mxCell>
        <mxCell id="FoPC5maeaGBnUtl3lmWO-1" value="Printer API" style="rounded=0;whiteSpace=wrap;html=1;" parent="1" vertex="1">
          <mxGeometry x="80" y="880" width="120" height="40" as="geometry" />
        </mxCell>
        <mxCell id="FoPC5maeaGBnUtl3lmWO-2" value="User API" style="rounded=0;whiteSpace=wrap;html=1;" parent="1" vertex="1">
          <mxGeometry x="240" y="880" width="120" height="40" as="geometry" />
        </mxCell>
        <mxCell id="FoPC5maeaGBnUtl3lmWO-3" value="Authentication API" style="rounded=0;whiteSpace=wrap;html=1;" parent="1" vertex="1">
          <mxGeometry x="400" y="880" width="120" height="40" as="geometry" />
        </mxCell>
        <mxCell id="FoPC5maeaGBnUtl3lmWO-4" value="Configuration API" style="rounded=0;whiteSpace=wrap;html=1;" parent="1" vertex="1">
          <mxGeometry x="560" y="880" width="120" height="40" as="geometry" />
        </mxCell>
        <mxCell id="FoPC5maeaGBnUtl3lmWO-5" value="Location API" style="rounded=0;whiteSpace=wrap;html=1;" parent="1" vertex="1">
          <mxGeometry x="720" y="880" width="120" height="40" as="geometry" />
        </mxCell>
        <mxCell id="s91gpBSnZtKVbeU1houT-9" style="edgeStyle=orthogonalEdgeStyle;rounded=0;orthogonalLoop=1;jettySize=auto;html=1;dashed=1;" edge="1" parent="1" source="FoPC5maeaGBnUtl3lmWO-6" target="qaFggrNNi9mdGuN-Iv2Q-2">
          <mxGeometry relative="1" as="geometry" />
        </mxCell>
        <mxCell id="FoPC5maeaGBnUtl3lmWO-6" value="&amp;lt;&amp;lt;access&amp;gt;&amp;gt;" style="text;html=1;align=center;verticalAlign=middle;whiteSpace=wrap;rounded=0;" parent="1" vertex="1">
          <mxGeometry x="270" y="780" width="60" height="40" as="geometry" />
        </mxCell>
        <mxCell id="s91gpBSnZtKVbeU1houT-11" style="edgeStyle=orthogonalEdgeStyle;rounded=0;orthogonalLoop=1;jettySize=auto;html=1;exitX=0.5;exitY=1;exitDx=0;exitDy=0;dashed=1;endArrow=none;endFill=0;" edge="1" parent="1" source="FoPC5maeaGBnUtl3lmWO-9" target="qaFggrNNi9mdGuN-Iv2Q-2">
          <mxGeometry relative="1" as="geometry">
            <Array as="points">
              <mxPoint x="500" y="860" />
              <mxPoint x="500" y="860" />
            </Array>
          </mxGeometry>
        </mxCell>
        <mxCell id="FoPC5maeaGBnUtl3lmWO-9" value="&amp;lt;&amp;lt;import&amp;gt;&amp;gt;" style="text;html=1;align=center;verticalAlign=middle;whiteSpace=wrap;rounded=0;" parent="1" vertex="1">
          <mxGeometry x="470" y="780" width="60" height="40" as="geometry" />
        </mxCell>
        <mxCell id="FoPC5maeaGBnUtl3lmWO-11" style="edgeStyle=orthogonalEdgeStyle;rounded=0;orthogonalLoop=1;jettySize=auto;html=1;exitX=0.5;exitY=0;exitDx=0;exitDy=0;entryX=0.397;entryY=1.003;entryDx=0;entryDy=0;entryPerimeter=0;dashed=1;" parent="1" source="FoPC5maeaGBnUtl3lmWO-9" target="YmB1JS9k2Q7_JQNzzzLY-24" edge="1">
          <mxGeometry relative="1" as="geometry" />
        </mxCell>
        <mxCell id="FoPC5maeaGBnUtl3lmWO-14" value="&amp;lt;&amp;lt;import&amp;gt;&amp;gt;" style="text;html=1;align=center;verticalAlign=middle;whiteSpace=wrap;rounded=0;" parent="1" vertex="1">
          <mxGeometry x="264" y="980" width="60" height="40" as="geometry" />
        </mxCell>
        <mxCell id="FoPC5maeaGBnUtl3lmWO-15" value="&amp;lt;&amp;lt;import&amp;gt;&amp;gt;" style="text;html=1;align=center;verticalAlign=middle;whiteSpace=wrap;rounded=0;" parent="1" vertex="1">
          <mxGeometry x="470" y="980" width="60" height="40" as="geometry" />
        </mxCell>
        <mxCell id="FoPC5maeaGBnUtl3lmWO-16" value="User" style="rounded=0;whiteSpace=wrap;html=1;" parent="1" vertex="1">
          <mxGeometry x="240" y="1080" width="120" height="40" as="geometry" />
        </mxCell>
        <mxCell id="FoPC5maeaGBnUtl3lmWO-20" style="edgeStyle=orthogonalEdgeStyle;rounded=0;orthogonalLoop=1;jettySize=auto;html=1;entryX=0.423;entryY=0.045;entryDx=0;entryDy=0;entryPerimeter=0;dashed=1;" parent="1" source="FoPC5maeaGBnUtl3lmWO-14" target="qaFggrNNi9mdGuN-Iv2Q-4" edge="1">
          <mxGeometry relative="1" as="geometry" />
        </mxCell>
        <mxCell id="FoPC5maeaGBnUtl3lmWO-21" style="edgeStyle=orthogonalEdgeStyle;rounded=0;orthogonalLoop=1;jettySize=auto;html=1;exitX=0.5;exitY=0;exitDx=0;exitDy=0;entryX=0.302;entryY=1;entryDx=0;entryDy=0;entryPerimeter=0;endArrow=none;endFill=0;dashed=1;" parent="1" source="FoPC5maeaGBnUtl3lmWO-14" target="qaFggrNNi9mdGuN-Iv2Q-1" edge="1">
          <mxGeometry relative="1" as="geometry" />
        </mxCell>
        <mxCell id="FoPC5maeaGBnUtl3lmWO-22" style="edgeStyle=orthogonalEdgeStyle;rounded=0;orthogonalLoop=1;jettySize=auto;html=1;exitX=0.5;exitY=0;exitDx=0;exitDy=0;entryX=0.547;entryY=1.022;entryDx=0;entryDy=0;entryPerimeter=0;dashed=1;" parent="1" source="FoPC5maeaGBnUtl3lmWO-15" target="qaFggrNNi9mdGuN-Iv2Q-1" edge="1">
          <mxGeometry relative="1" as="geometry" />
        </mxCell>
        <mxCell id="FoPC5maeaGBnUtl3lmWO-23" style="edgeStyle=orthogonalEdgeStyle;rounded=0;orthogonalLoop=1;jettySize=auto;html=1;exitX=0.5;exitY=1;exitDx=0;exitDy=0;entryX=0.767;entryY=-0.015;entryDx=0;entryDy=0;entryPerimeter=0;endArrow=none;endFill=0;dashed=1;" parent="1" source="FoPC5maeaGBnUtl3lmWO-15" target="qaFggrNNi9mdGuN-Iv2Q-4" edge="1">
          <mxGeometry relative="1" as="geometry" />
        </mxCell>
        <mxCell id="FoPC5maeaGBnUtl3lmWO-24" value="Printer" style="rounded=0;whiteSpace=wrap;html=1;" parent="1" vertex="1">
          <mxGeometry x="80" y="1080" width="120" height="40" as="geometry" />
        </mxCell>
        <mxCell id="FoPC5maeaGBnUtl3lmWO-25" value="Configuration" style="rounded=0;whiteSpace=wrap;html=1;" parent="1" vertex="1">
          <mxGeometry x="400" y="1080" width="120" height="40" as="geometry" />
        </mxCell>
        <mxCell id="FoPC5maeaGBnUtl3lmWO-26" value="Location" style="rounded=0;whiteSpace=wrap;html=1;" parent="1" vertex="1">
          <mxGeometry x="560" y="1080" width="120" height="40" as="geometry" />
        </mxCell>
        <mxCell id="s91gpBSnZtKVbeU1houT-8" style="edgeStyle=orthogonalEdgeStyle;rounded=0;orthogonalLoop=1;jettySize=auto;html=1;exitX=0.5;exitY=0;exitDx=0;exitDy=0;entryX=0.223;entryY=1.013;entryDx=0;entryDy=0;entryPerimeter=0;dashed=1;endArrow=none;endFill=0;" edge="1" parent="1" source="FoPC5maeaGBnUtl3lmWO-6" target="YmB1JS9k2Q7_JQNzzzLY-24">
          <mxGeometry relative="1" as="geometry" />
        </mxCell>
      </root>
    </mxGraphModel>
  </diagram>
</mxfile>
